<?xml version="1.0" encoding="UTF-8" standalone="no"?>
<!DOCTYPE svg PUBLIC "-//W3C//DTD SVG 1.1//EN" "http://www.w3.org/Graphics/SVG/1.1/DTD/svg11.dtd">
<svg version="1.1" xmlns="http://www.w3.org/2000/svg" xmlns:xlink="http://www.w3.org/1999/xlink" preserveAspectRatio="xMidYMid meet" viewBox="0 0 640 640"><defs><path d="M324.05 638.99L320 639.08L315.95 638.99L315.95 638.99L324.05 638.99ZM396.78 9.31L408.99 12.58L417.71 15.3L359.42 15.3L359.42 15.3L253.02 15.3L253.02 22.91L438.8 22.91L444.42 25.16L455.79 30.24L456.19 30.44L433.06 30.44L433.06 30.51L359.42 30.51L359.42 30.52L253.02 30.52L253.02 38.13L459.88 38.13L459.88 38.12L471.31 38.12L477.8 41.65L484.54 45.66L433.06 45.66L433.06 45.73L359.42 45.73L359.42 45.74L253.02 45.74L253.02 53.35L459.88 53.35L459.88 53.34L496.72 53.34L498.78 54.68L507.58 60.88L433.06 60.88L433.06 60.95L359.42 60.95L359.42 68.56L517.75 68.56L518.64 69.24L526.94 76.1L433.06 76.1L433.06 76.17L359.42 76.17L359.42 83.78L535.65 83.78L537.29 85.25L543.6 91.32L433.06 91.32L433.06 91.39L359.42 91.39L359.42 99L551.18 99L554.67 102.62L558.16 106.54L433.06 106.54L433.06 114.14L564.79 114.14L570.67 121.28L570.98 121.69L570.54 121.69L570.54 121.75L433.06 121.75L433.06 129.36L576.84 129.36L578.14 131.06L582.25 136.9L570.54 136.9L570.54 136.97L433.06 136.97L433.06 144.58L587.47 144.58L591.94 151.49L592.32 152.12L570.54 152.12L570.54 152.19L433.06 152.19L433.06 159.8L596.89 159.8L598.26 162.11L601.1 167.34L570.54 167.34L570.54 167.41L433.06 167.41L433.06 175.02L605.18 175.02L608.91 182.56L570.54 182.56L570.54 190.17L612.38 190.17L614.75 195.49L615.67 197.78L570.54 197.78L570.54 205.39L618.71 205.39L619.39 207.09L621.49 213L570.54 213L570.54 220.61L624.12 220.61L626.49 228.22L570.54 228.22L570.54 235.83L628.65 235.83L630.61 243.14L630.68 243.44L570.54 243.44L570.54 251.05L632.39 251.05L633.41 255.54L633.98 258.66L570.54 258.66L570.54 266.27L635.38 266.27L635.72 268.12L637.54 280.87L638.85 293.77L639.65 306.82L639.92 320L639.65 333.18L638.87 345.99L637.63 358.21L635.81 370.95L633.49 383.53L630.69 395.94L627.42 408.15L623.67 420.17L619.48 431.99L614.84 443.58L609.76 454.95L604.26 466.08L598.35 476.96L592.03 487.59L585.32 497.94L578.22 508.01L570.76 517.8L562.93 527.28L554.75 536.45L546.23 545.31L537.38 553.83L528.2 562.01L518.72 569.83L508.94 577.3L498.86 584.39L488.51 591.1L477.89 597.42L467.01 603.34L455.88 608.84L444.51 613.91L432.91 618.55L421.1 622.75L409.08 626.49L396.86 629.77L386.89 632.02L386.89 631.38L250.29 631.38L243.14 629.77L230.92 626.49L222.21 623.78L280.5 623.78L280.5 623.77L386.89 623.77L386.89 616.16L201.12 616.16L195.49 613.91L184.12 608.84L183.72 608.64L206.86 608.64L206.86 608.56L280.5 608.56L280.5 608.55L386.89 608.55L386.89 600.95L180.03 600.95L180.03 600.95L168.61 600.95L162.11 597.42L155.38 593.42L206.86 593.42L206.86 593.34L280.5 593.34L280.5 593.34L386.89 593.34L386.89 585.73L180.03 585.73L180.03 585.73L143.2 585.73L141.14 584.39L132.34 578.2L206.86 578.2L206.86 578.12L280.5 578.12L280.5 570.51L122.17 570.51L121.28 569.83L112.97 562.98L206.86 562.98L206.86 562.9L280.5 562.9L280.5 555.29L104.27 555.29L102.62 553.83L96.32 547.76L206.86 547.76L206.86 547.68L280.5 547.68L280.5 540.07L88.73 540.07L85.25 536.45L81.76 532.54L206.86 532.54L206.86 524.93L75.13 524.93L69.24 517.8L68.93 517.39L69.38 517.39L69.38 517.32L206.86 517.32L206.86 509.71L63.07 509.71L61.78 508.01L57.66 502.17L69.38 502.17L69.38 502.1L206.86 502.1L206.86 494.49L52.45 494.49L47.97 487.59L47.59 486.95L69.38 486.95L69.38 486.88L206.86 486.88L206.86 479.27L43.03 479.27L41.65 476.96L38.81 471.73L69.38 471.73L69.38 471.66L206.86 471.66L206.86 464.05L34.74 464.05L31.01 456.51L69.38 456.51L69.38 448.9L27.54 448.9L25.16 443.58L24.25 441.29L69.38 441.29L69.38 433.68L21.2 433.68L20.52 431.99L18.42 426.07L69.38 426.07L69.38 418.46L15.79 418.46L13.42 410.86L69.38 410.86L69.38 403.25L11.27 403.25L9.31 395.94L9.24 395.64L69.38 395.64L69.38 388.03L7.52 388.03L6.51 383.53L5.93 380.42L69.38 380.42L69.38 372.81L4.53 372.81L4.19 370.95L2.37 358.21L1.06 345.3L0.27 332.26L0 319.08L0.27 305.89L1.05 293.09L2.29 280.87L4.11 268.12L6.42 255.54L9.22 243.14L12.5 230.92L16.24 218.9L20.44 207.09L25.08 195.49L30.16 184.12L35.66 172.99L41.57 162.11L47.89 151.49L54.6 141.14L61.69 131.06L69.16 121.28L76.99 111.8L85.16 102.62L93.69 93.77L102.54 85.25L111.71 77.07L121.2 69.24L130.98 61.78L141.05 54.68L151.41 47.97L162.03 41.65L172.91 35.74L184.04 30.24L195.41 25.16L207 20.52L218.82 16.33L230.84 12.58L243.05 9.31L253.02 7.06L253.02 7.69L389.62 7.69L389.62 7.69L396.78 9.31ZM319.92 0L323.96 0.08L315.87 0.08L315.87 0.08L319.92 0Z" id="a16vGE2ynJ"></path><linearGradient id="gradientk3eIxLugNT" gradientUnits="userSpaceOnUse" x1="639.92" y1="248.09" x2="0" y2="639.08"><stop style="stop-color: #d67500;stop-opacity: 1" offset="0%"></stop><stop style="stop-color: #010000;stop-opacity: 1" offset="100%"></stop></linearGradient></defs><g><g><g><use xlink:href="#a16vGE2ynJ" opacity="1" fill="url(#gradientk3eIxLugNT)"></use></g></g></g></svg>