<?xml version="1.0" encoding="UTF-8" standalone="no"?>
<!DOCTYPE svg PUBLIC "-//W3C//DTD SVG 1.1//EN" "http://www.w3.org/Graphics/SVG/1.1/DTD/svg11.dtd">
<svg version="1.1" xmlns="http://www.w3.org/2000/svg" xmlns:xlink="http://www.w3.org/1999/xlink" preserveAspectRatio="xMidYMid meet" viewBox="0 0 800 300" width="800" height="300"><defs><path d="M244.33 70.31C261.27 70.31 275 84.04 275 100.98C275 126.85 275 173.78 275 199.64C275 216.58 261.27 230.31 244.33 230.31C210.46 230.31 139.54 230.31 105.67 230.31C88.73 230.31 75 216.58 75 199.64C75 173.78 75 126.85 75 100.98C75 84.04 88.73 70.31 105.67 70.31C139.54 70.31 210.46 70.31 244.33 70.31Z" id="a2qQfbbPxu"></path><path d="M137.83 81.95C150.13 81.95 160.11 91.92 160.11 104.23C160.11 127.41 160.11 174.68 160.11 197.87C160.11 210.17 150.13 220.14 137.83 220.14C127.76 220.14 119.84 220.14 109.78 220.14C97.47 220.14 87.5 210.17 87.5 197.87C87.5 174.68 87.5 127.41 87.5 104.23C87.5 91.92 97.47 81.95 109.78 81.95C119.84 81.95 127.76 81.95 137.83 81.95Z" id="eF6NoRcIn"></path><path d="M256.49 153.55L256.61 153.57L256.72 153.59L256.84 153.61L256.95 153.65L257.06 153.68L257.16 153.72L257.27 153.77L257.37 153.82L257.47 153.88L257.56 153.94L257.65 154.01L257.74 154.08L257.83 154.15L257.91 154.23L257.98 154.31L258.06 154.39L258.13 154.48L258.19 154.57L258.25 154.67L258.31 154.77L258.36 154.87L258.41 154.97L258.45 155.08L258.49 155.19L258.52 155.3L258.55 155.41L258.57 155.53L258.58 155.64L258.59 155.76L258.59 155.88L258.59 156L258.58 156.12L258.57 156.24L258.55 156.36L258.52 156.47L258.49 156.58L258.45 156.69L258.41 156.8L258.36 156.9L258.31 157L258.25 157.1L258.19 157.19L258.13 157.29L258.06 157.37L257.98 157.46L257.91 157.54L257.83 157.62L257.74 157.69L257.65 157.76L257.56 157.83L257.47 157.89L257.37 157.94L257.27 158L257.16 158.04L257.06 158.09L256.95 158.12L256.84 158.15L256.72 158.18L256.61 158.2L256.49 158.22L256.37 158.22L256.25 158.23L181.25 158.23L181.13 158.22L181.01 158.22L180.89 158.2L180.78 158.18L180.66 158.15L180.55 158.12L180.44 158.09L180.34 158.04L180.23 158L180.13 157.94L180.03 157.89L179.94 157.83L179.85 157.76L179.76 157.69L179.67 157.62L179.59 157.54L179.52 157.46L179.44 157.37L179.37 157.29L179.31 157.19L179.25 157.1L179.19 157L179.14 156.9L179.09 156.8L179.05 156.69L179.01 156.58L178.98 156.47L178.95 156.36L178.93 156.24L178.92 156.12L178.91 156L178.91 155.88L178.91 155.76L178.92 155.64L178.93 155.53L178.95 155.41L178.98 155.3L179.01 155.19L179.05 155.08L179.09 154.97L179.14 154.87L179.19 154.77L179.25 154.67L179.31 154.57L179.37 154.48L179.44 154.39L179.52 154.31L179.59 154.23L179.67 154.15L179.76 154.08L179.85 154.01L179.94 153.94L180.03 153.88L180.13 153.82L180.23 153.77L180.34 153.72L180.44 153.68L180.55 153.65L180.66 153.61L180.78 153.59L180.89 153.57L181.01 153.55L181.13 153.54L181.25 153.54L256.25 153.54L256.37 153.54L256.49 153.55ZM256.49 142.05L256.61 142.06L256.72 142.08L256.84 142.11L256.95 142.14L257.06 142.18L257.16 142.22L257.27 142.26L257.37 142.32L257.47 142.37L257.56 142.43L257.65 142.5L257.74 142.57L257.83 142.64L257.91 142.72L257.98 142.8L258.06 142.89L258.13 142.97L258.19 143.07L258.25 143.16L258.31 143.26L258.36 143.36L258.41 143.46L258.45 143.57L258.49 143.68L258.52 143.79L258.55 143.9L258.57 144.02L258.58 144.14L258.59 144.26L258.59 144.38L258.59 144.5L258.58 144.62L258.57 144.73L258.55 144.85L258.52 144.96L258.49 145.07L258.45 145.18L258.41 145.29L258.36 145.39L258.31 145.49L258.25 145.59L258.19 145.69L258.13 145.78L258.06 145.87L257.98 145.95L257.91 146.03L257.83 146.11L257.74 146.19L257.65 146.25L257.56 146.32L257.47 146.38L257.37 146.44L257.27 146.49L257.16 146.54L257.06 146.58L256.95 146.62L256.84 146.65L256.72 146.67L256.61 146.69L256.49 146.71L256.37 146.72L256.25 146.72L181.25 146.72L181.13 146.72L181.01 146.71L180.89 146.69L180.78 146.67L180.66 146.65L180.55 146.62L180.44 146.58L180.34 146.54L180.23 146.49L180.13 146.44L180.03 146.38L179.94 146.32L179.85 146.25L179.76 146.19L179.67 146.11L179.59 146.03L179.52 145.95L179.44 145.87L179.37 145.78L179.31 145.69L179.25 145.59L179.19 145.49L179.14 145.39L179.09 145.29L179.05 145.18L179.01 145.07L178.98 144.96L178.95 144.85L178.93 144.73L178.92 144.62L178.91 144.5L178.91 144.38L178.91 144.26L178.92 144.14L178.93 144.02L178.95 143.9L178.98 143.79L179.01 143.68L179.05 143.57L179.09 143.46L179.14 143.36L179.19 143.26L179.25 143.16L179.31 143.07L179.37 142.97L179.44 142.89L179.52 142.8L179.59 142.72L179.67 142.64L179.76 142.57L179.85 142.5L179.94 142.43L180.03 142.37L180.13 142.32L180.23 142.26L180.34 142.22L180.44 142.18L180.55 142.14L180.66 142.11L180.78 142.08L180.89 142.06L181.01 142.05L181.13 142.04L181.25 142.03L256.25 142.03L256.37 142.04L256.49 142.05ZM256.49 130.33L256.61 130.34L256.72 130.36L256.84 130.39L256.95 130.42L257.06 130.46L257.16 130.5L257.27 130.55L257.37 130.6L257.47 130.65L257.56 130.71L257.65 130.78L257.74 130.85L257.83 130.92L257.91 131L257.98 131.08L258.06 131.17L258.13 131.26L258.19 131.35L258.25 131.44L258.31 131.54L258.36 131.64L258.41 131.75L258.45 131.85L258.49 131.96L258.52 132.07L258.55 132.19L258.57 132.3L258.58 132.42L258.59 132.54L258.59 132.66L258.59 132.78L258.58 132.9L258.57 133.01L258.55 133.13L258.52 133.24L258.49 133.35L258.45 133.46L258.41 133.57L258.36 133.67L258.31 133.78L258.25 133.87L258.19 133.97L258.13 134.06L258.06 134.15L257.98 134.23L257.91 134.32L257.83 134.39L257.74 134.47L257.65 134.54L257.56 134.6L257.47 134.66L257.37 134.72L257.27 134.77L257.16 134.82L257.06 134.86L256.95 134.9L256.84 134.93L256.72 134.95L256.61 134.97L256.49 134.99L256.37 135L256.25 135L181.25 135L181.13 135L181.01 134.99L180.89 134.97L180.78 134.95L180.66 134.93L180.55 134.9L180.44 134.86L180.34 134.82L180.23 134.77L180.13 134.72L180.03 134.66L179.94 134.6L179.85 134.54L179.76 134.47L179.67 134.39L179.59 134.32L179.52 134.23L179.44 134.15L179.37 134.06L179.31 133.97L179.25 133.87L179.19 133.78L179.14 133.67L179.09 133.57L179.05 133.46L179.01 133.35L178.98 133.24L178.95 133.13L178.93 133.01L178.92 132.9L178.91 132.78L178.91 132.66L178.91 132.54L178.92 132.42L178.93 132.3L178.95 132.19L178.98 132.07L179.01 131.96L179.05 131.85L179.09 131.75L179.14 131.64L179.19 131.54L179.25 131.44L179.31 131.35L179.37 131.26L179.44 131.17L179.52 131.08L179.59 131L179.67 130.92L179.76 130.85L179.85 130.78L179.94 130.71L180.03 130.65L180.13 130.6L180.23 130.55L180.34 130.5L180.44 130.46L180.55 130.42L180.66 130.39L180.78 130.36L180.89 130.34L181.01 130.33L181.13 130.32L181.25 130.31L256.25 130.31L256.37 130.32L256.49 130.33ZM256.49 118.61L256.61 118.62L256.72 118.64L256.84 118.67L256.95 118.7L257.06 118.74L257.16 118.78L257.27 118.83L257.37 118.88L257.47 118.93L257.56 119L257.65 119.06L257.74 119.13L257.83 119.2L257.91 119.28L257.98 119.36L258.06 119.45L258.13 119.54L258.19 119.63L258.25 119.72L258.31 119.82L258.36 119.92L258.41 120.03L258.45 120.13L258.49 120.24L258.52 120.35L258.55 120.47L258.57 120.58L258.58 120.7L258.59 120.82L258.59 120.94L258.59 121.06L258.58 121.18L258.57 121.3L258.55 121.41L258.52 121.53L258.49 121.64L258.45 121.75L258.41 121.85L258.36 121.96L258.31 122.06L258.25 122.15L258.19 122.25L258.13 122.34L258.06 122.43L257.98 122.52L257.91 122.6L257.83 122.67L257.74 122.75L257.65 122.82L257.56 122.88L257.47 122.94L257.37 123L257.27 123.05L257.16 123.1L257.06 123.14L256.95 123.18L256.84 123.21L256.72 123.24L256.61 123.26L256.49 123.27L256.37 123.28L256.25 123.28L181.25 123.28L181.13 123.28L181.01 123.27L180.89 123.26L180.78 123.24L180.66 123.21L180.55 123.18L180.44 123.14L180.34 123.1L180.23 123.05L180.13 123L180.03 122.94L179.94 122.88L179.85 122.82L179.76 122.75L179.67 122.67L179.59 122.6L179.52 122.52L179.44 122.43L179.37 122.34L179.31 122.25L179.25 122.15L179.19 122.06L179.14 121.96L179.09 121.85L179.05 121.75L179.01 121.64L178.98 121.53L178.95 121.41L178.93 121.3L178.92 121.18L178.91 121.06L178.91 120.94L178.91 120.82L178.92 120.7L178.93 120.58L178.95 120.47L178.98 120.35L179.01 120.24L179.05 120.13L179.09 120.03L179.14 119.92L179.19 119.82L179.25 119.72L179.31 119.63L179.37 119.54L179.44 119.45L179.52 119.36L179.59 119.28L179.67 119.2L179.76 119.13L179.85 119.06L179.94 119L180.03 118.93L180.13 118.88L180.23 118.83L180.34 118.78L180.44 118.74L180.55 118.7L180.66 118.67L180.78 118.64L180.89 118.62L181.01 118.61L181.13 118.6L181.25 118.6L256.25 118.6L256.37 118.6L256.49 118.61ZM256.49 106.89L256.61 106.9L256.72 106.92L256.84 106.95L256.95 106.98L257.06 107.02L257.16 107.06L257.27 107.11L257.37 107.16L257.47 107.22L257.56 107.28L257.65 107.34L257.74 107.41L257.83 107.49L257.91 107.56L257.98 107.64L258.06 107.73L258.13 107.82L258.19 107.91L258.25 108.01L258.31 108.1L258.36 108.2L258.41 108.31L258.45 108.41L258.49 108.52L258.52 108.63L258.55 108.75L258.57 108.86L258.58 108.98L258.59 109.1L258.59 109.22L258.59 109.34L258.58 109.46L258.57 109.58L258.55 109.69L258.52 109.81L258.49 109.92L258.45 110.03L258.41 110.13L258.36 110.24L258.31 110.34L258.25 110.44L258.19 110.53L258.13 110.62L258.06 110.71L257.98 110.8L257.91 110.88L257.83 110.96L257.74 111.03L257.65 111.1L257.56 111.16L257.47 111.22L257.37 111.28L257.27 111.33L257.16 111.38L257.06 111.42L256.95 111.46L256.84 111.49L256.72 111.52L256.61 111.54L256.49 111.55L256.37 111.56L256.25 111.56L181.25 111.56L181.13 111.56L181.01 111.55L180.89 111.54L180.78 111.52L180.66 111.49L180.55 111.46L180.44 111.42L180.34 111.38L180.23 111.33L180.13 111.28L180.03 111.22L179.94 111.16L179.85 111.1L179.76 111.03L179.67 110.96L179.59 110.88L179.52 110.8L179.44 110.71L179.37 110.62L179.31 110.53L179.25 110.44L179.19 110.34L179.14 110.24L179.09 110.13L179.05 110.03L179.01 109.92L178.98 109.81L178.95 109.69L178.93 109.58L178.92 109.46L178.91 109.34L178.91 109.22L178.91 109.1L178.92 108.98L178.93 108.86L178.95 108.75L178.98 108.63L179.01 108.52L179.05 108.41L179.09 108.31L179.14 108.2L179.19 108.1L179.25 108.01L179.31 107.91L179.37 107.82L179.44 107.73L179.52 107.64L179.59 107.56L179.67 107.49L179.76 107.41L179.85 107.34L179.94 107.28L180.03 107.22L180.13 107.16L180.23 107.11L180.34 107.06L180.44 107.02L180.55 106.98L180.66 106.95L180.78 106.92L180.89 106.9L181.01 106.89L181.13 106.88L181.25 106.88L256.25 106.88L256.37 106.88L256.49 106.89Z" id="d2Jai9VZQc"></path><path d="M216.64 89.06C217.37 89.06 217.97 89.66 217.97 90.39C217.97 91.07 217.97 91.75 217.97 92.42C217.97 93.15 217.37 93.75 216.64 93.75C209.09 93.75 187.78 93.75 180.24 93.75C179.5 93.75 178.91 93.15 178.91 92.42C178.91 91.75 178.91 91.07 178.91 90.39C178.91 89.66 179.5 89.06 180.24 89.06C187.78 89.06 209.09 89.06 216.64 89.06Z" id="c5czNfwlQn"></path><path d="M469.33 70.31C486.27 70.31 500 84.04 500 100.98C500 126.85 500 173.78 500 199.64C500 216.58 486.27 230.31 469.33 230.31C435.46 230.31 364.54 230.31 330.67 230.31C313.73 230.31 300 216.58 300 199.64C300 173.78 300 126.85 300 100.98C300 84.04 313.73 70.31 330.67 70.31C364.54 70.31 435.46 70.31 469.33 70.31Z" id="af48mygey"></path><path d="M362.83 81.95C375.13 81.95 385.11 91.92 385.11 104.23C385.11 127.41 385.11 174.68 385.11 197.87C385.11 210.17 375.13 220.14 362.83 220.14C352.76 220.14 344.84 220.14 334.78 220.14C322.47 220.14 312.5 210.17 312.5 197.87C312.5 174.68 312.5 127.41 312.5 104.23C312.5 91.92 322.47 81.95 334.78 81.95C344.84 81.95 352.76 81.95 362.83 81.95Z" id="b3vWQDJpku"></path><path d="M481.49 153.55L481.61 153.57L481.72 153.59L481.84 153.61L481.95 153.65L482.06 153.68L482.16 153.72L482.27 153.77L482.37 153.82L482.47 153.88L482.56 153.94L482.65 154.01L482.74 154.08L482.83 154.15L482.91 154.23L482.98 154.31L483.06 154.39L483.13 154.48L483.19 154.57L483.25 154.67L483.31 154.77L483.36 154.87L483.41 154.97L483.45 155.08L483.49 155.19L483.52 155.3L483.55 155.41L483.57 155.53L483.58 155.64L483.59 155.76L483.59 155.88L483.59 156L483.58 156.12L483.57 156.24L483.55 156.36L483.52 156.47L483.49 156.58L483.45 156.69L483.41 156.8L483.36 156.9L483.31 157L483.25 157.1L483.19 157.19L483.13 157.29L483.06 157.37L482.98 157.46L482.91 157.54L482.83 157.62L482.74 157.69L482.65 157.76L482.56 157.83L482.47 157.89L482.37 157.94L482.27 158L482.16 158.04L482.06 158.09L481.95 158.12L481.84 158.15L481.72 158.18L481.61 158.2L481.49 158.22L481.37 158.22L481.25 158.23L406.25 158.23L406.13 158.22L406.01 158.22L405.89 158.2L405.78 158.18L405.66 158.15L405.55 158.12L405.44 158.09L405.34 158.04L405.23 158L405.13 157.94L405.03 157.89L404.94 157.83L404.85 157.76L404.76 157.69L404.67 157.62L404.59 157.54L404.52 157.46L404.44 157.37L404.37 157.29L404.31 157.19L404.25 157.1L404.19 157L404.14 156.9L404.09 156.8L404.05 156.69L404.01 156.58L403.98 156.47L403.95 156.36L403.93 156.24L403.92 156.12L403.91 156L403.91 155.88L403.91 155.76L403.92 155.64L403.93 155.53L403.95 155.41L403.98 155.3L404.01 155.19L404.05 155.08L404.09 154.97L404.14 154.87L404.19 154.77L404.25 154.67L404.31 154.57L404.37 154.48L404.44 154.39L404.52 154.31L404.59 154.23L404.67 154.15L404.76 154.08L404.85 154.01L404.94 153.94L405.03 153.88L405.13 153.82L405.23 153.77L405.34 153.72L405.44 153.68L405.55 153.65L405.66 153.61L405.78 153.59L405.89 153.57L406.01 153.55L406.13 153.54L406.25 153.54L481.25 153.54L481.37 153.54L481.49 153.55ZM481.49 142.05L481.61 142.06L481.72 142.08L481.84 142.11L481.95 142.14L482.06 142.18L482.16 142.22L482.27 142.26L482.37 142.32L482.47 142.37L482.56 142.43L482.65 142.5L482.74 142.57L482.83 142.64L482.91 142.72L482.98 142.8L483.06 142.89L483.13 142.97L483.19 143.07L483.25 143.16L483.31 143.26L483.36 143.36L483.41 143.46L483.45 143.57L483.49 143.68L483.52 143.79L483.55 143.9L483.57 144.02L483.58 144.14L483.59 144.26L483.59 144.38L483.59 144.5L483.58 144.62L483.57 144.73L483.55 144.85L483.52 144.96L483.49 145.07L483.45 145.18L483.41 145.29L483.36 145.39L483.31 145.49L483.25 145.59L483.19 145.69L483.13 145.78L483.06 145.87L482.98 145.95L482.91 146.03L482.83 146.11L482.74 146.19L482.65 146.25L482.56 146.32L482.47 146.38L482.37 146.44L482.27 146.49L482.16 146.54L482.06 146.58L481.95 146.62L481.84 146.65L481.72 146.67L481.61 146.69L481.49 146.71L481.37 146.72L481.25 146.72L406.25 146.72L406.13 146.72L406.01 146.71L405.89 146.69L405.78 146.67L405.66 146.65L405.55 146.62L405.44 146.58L405.34 146.54L405.23 146.49L405.13 146.44L405.03 146.38L404.94 146.32L404.85 146.25L404.76 146.19L404.67 146.11L404.59 146.03L404.52 145.95L404.44 145.87L404.37 145.78L404.31 145.69L404.25 145.59L404.19 145.49L404.14 145.39L404.09 145.29L404.05 145.18L404.01 145.07L403.98 144.96L403.95 144.85L403.93 144.73L403.92 144.62L403.91 144.5L403.91 144.38L403.91 144.26L403.92 144.14L403.93 144.02L403.95 143.9L403.98 143.79L404.01 143.68L404.05 143.57L404.09 143.46L404.14 143.36L404.19 143.26L404.25 143.16L404.31 143.07L404.37 142.97L404.44 142.89L404.52 142.8L404.59 142.72L404.67 142.64L404.76 142.57L404.85 142.5L404.94 142.43L405.03 142.37L405.13 142.32L405.23 142.26L405.34 142.22L405.44 142.18L405.55 142.14L405.66 142.11L405.78 142.08L405.89 142.06L406.01 142.05L406.13 142.04L406.25 142.03L481.25 142.03L481.37 142.04L481.49 142.05ZM481.49 130.33L481.61 130.34L481.72 130.36L481.84 130.39L481.95 130.42L482.06 130.46L482.16 130.5L482.27 130.55L482.37 130.6L482.47 130.65L482.56 130.71L482.65 130.78L482.74 130.85L482.83 130.92L482.91 131L482.98 131.08L483.06 131.17L483.13 131.26L483.19 131.35L483.25 131.44L483.31 131.54L483.36 131.64L483.41 131.75L483.45 131.85L483.49 131.96L483.52 132.07L483.55 132.19L483.57 132.3L483.58 132.42L483.59 132.54L483.59 132.66L483.59 132.78L483.58 132.9L483.57 133.01L483.55 133.13L483.52 133.24L483.49 133.35L483.45 133.46L483.41 133.57L483.36 133.67L483.31 133.78L483.25 133.87L483.19 133.97L483.13 134.06L483.06 134.15L482.98 134.23L482.91 134.32L482.83 134.39L482.74 134.47L482.65 134.54L482.56 134.6L482.47 134.66L482.37 134.72L482.27 134.77L482.16 134.82L482.06 134.86L481.95 134.9L481.84 134.93L481.72 134.95L481.61 134.97L481.49 134.99L481.37 135L481.25 135L406.25 135L406.13 135L406.01 134.99L405.89 134.97L405.78 134.95L405.66 134.93L405.55 134.9L405.44 134.86L405.34 134.82L405.23 134.77L405.13 134.72L405.03 134.66L404.94 134.6L404.85 134.54L404.76 134.47L404.67 134.39L404.59 134.32L404.52 134.23L404.44 134.15L404.37 134.06L404.31 133.97L404.25 133.87L404.19 133.78L404.14 133.67L404.09 133.57L404.05 133.46L404.01 133.35L403.98 133.24L403.95 133.13L403.93 133.01L403.92 132.9L403.91 132.78L403.91 132.66L403.91 132.54L403.92 132.42L403.93 132.3L403.95 132.19L403.98 132.07L404.01 131.96L404.05 131.85L404.09 131.75L404.14 131.64L404.19 131.54L404.25 131.44L404.31 131.35L404.37 131.26L404.44 131.17L404.52 131.08L404.59 131L404.67 130.92L404.76 130.85L404.85 130.78L404.94 130.71L405.03 130.65L405.13 130.6L405.23 130.55L405.34 130.5L405.44 130.46L405.55 130.42L405.66 130.39L405.78 130.36L405.89 130.34L406.01 130.33L406.13 130.32L406.25 130.31L481.25 130.31L481.37 130.32L481.49 130.33ZM481.49 118.61L481.61 118.62L481.72 118.64L481.84 118.67L481.95 118.7L482.06 118.74L482.16 118.78L482.27 118.83L482.37 118.88L482.47 118.93L482.56 119L482.65 119.06L482.74 119.13L482.83 119.2L482.91 119.28L482.98 119.36L483.06 119.45L483.13 119.54L483.19 119.63L483.25 119.72L483.31 119.82L483.36 119.92L483.41 120.03L483.45 120.13L483.49 120.24L483.52 120.35L483.55 120.47L483.57 120.58L483.58 120.7L483.59 120.82L483.59 120.94L483.59 121.06L483.58 121.18L483.57 121.3L483.55 121.41L483.52 121.53L483.49 121.64L483.45 121.75L483.41 121.85L483.36 121.96L483.31 122.06L483.25 122.15L483.19 122.25L483.13 122.34L483.06 122.43L482.98 122.52L482.91 122.6L482.83 122.67L482.74 122.75L482.65 122.82L482.56 122.88L482.47 122.94L482.37 123L482.27 123.05L482.16 123.1L482.06 123.14L481.95 123.18L481.84 123.21L481.72 123.24L481.61 123.26L481.49 123.27L481.37 123.28L481.25 123.28L406.25 123.28L406.13 123.28L406.01 123.27L405.89 123.26L405.78 123.24L405.66 123.21L405.55 123.18L405.44 123.14L405.34 123.1L405.23 123.05L405.13 123L405.03 122.94L404.94 122.88L404.85 122.82L404.76 122.75L404.67 122.67L404.59 122.6L404.52 122.52L404.44 122.43L404.37 122.34L404.31 122.25L404.25 122.15L404.19 122.06L404.14 121.96L404.09 121.85L404.05 121.75L404.01 121.64L403.98 121.53L403.95 121.41L403.93 121.3L403.92 121.18L403.91 121.06L403.91 120.94L403.91 120.82L403.92 120.7L403.93 120.58L403.95 120.47L403.98 120.35L404.01 120.24L404.05 120.13L404.09 120.03L404.14 119.92L404.19 119.82L404.25 119.72L404.31 119.63L404.37 119.54L404.44 119.45L404.52 119.36L404.59 119.28L404.67 119.2L404.76 119.13L404.85 119.06L404.94 119L405.03 118.93L405.13 118.88L405.23 118.83L405.34 118.78L405.44 118.74L405.55 118.7L405.66 118.67L405.78 118.64L405.89 118.62L406.01 118.61L406.13 118.6L406.25 118.6L481.25 118.6L481.37 118.6L481.49 118.61ZM481.49 106.89L481.61 106.9L481.72 106.92L481.84 106.95L481.95 106.98L482.06 107.02L482.16 107.06L482.27 107.11L482.37 107.16L482.47 107.22L482.56 107.28L482.65 107.34L482.74 107.41L482.83 107.49L482.91 107.56L482.98 107.64L483.06 107.73L483.13 107.82L483.19 107.91L483.25 108.01L483.31 108.1L483.36 108.2L483.41 108.31L483.45 108.41L483.49 108.52L483.52 108.63L483.55 108.75L483.57 108.86L483.58 108.98L483.59 109.1L483.59 109.22L483.59 109.34L483.58 109.46L483.57 109.58L483.55 109.69L483.52 109.81L483.49 109.92L483.45 110.03L483.41 110.13L483.36 110.24L483.31 110.34L483.25 110.44L483.19 110.53L483.13 110.62L483.06 110.71L482.98 110.8L482.91 110.88L482.83 110.96L482.74 111.03L482.65 111.1L482.56 111.16L482.47 111.22L482.37 111.28L482.27 111.33L482.16 111.38L482.06 111.42L481.95 111.46L481.84 111.49L481.72 111.52L481.61 111.54L481.49 111.55L481.37 111.56L481.25 111.56L406.25 111.56L406.13 111.56L406.01 111.55L405.89 111.54L405.78 111.52L405.66 111.49L405.55 111.46L405.44 111.42L405.34 111.38L405.23 111.33L405.13 111.28L405.03 111.22L404.94 111.16L404.85 111.1L404.76 111.03L404.67 110.96L404.59 110.88L404.52 110.8L404.44 110.71L404.37 110.62L404.31 110.53L404.25 110.44L404.19 110.34L404.14 110.24L404.09 110.13L404.05 110.03L404.01 109.92L403.98 109.81L403.95 109.69L403.93 109.58L403.92 109.46L403.91 109.34L403.91 109.22L403.91 109.1L403.92 108.98L403.93 108.86L403.95 108.75L403.98 108.63L404.01 108.52L404.05 108.41L404.09 108.31L404.14 108.2L404.19 108.1L404.25 108.01L404.31 107.91L404.37 107.82L404.44 107.73L404.52 107.64L404.59 107.56L404.67 107.49L404.76 107.41L404.85 107.34L404.94 107.28L405.03 107.22L405.13 107.16L405.23 107.11L405.34 107.06L405.44 107.02L405.55 106.98L405.66 106.95L405.78 106.92L405.89 106.9L406.01 106.89L406.13 106.88L406.25 106.88L481.25 106.88L481.37 106.88L481.49 106.89Z" id="b1fXw1a8eD"></path><path d="M441.64 89.06C442.37 89.06 442.97 89.66 442.97 90.39C442.97 91.07 442.97 91.75 442.97 92.42C442.97 93.15 442.37 93.75 441.64 93.75C434.09 93.75 412.78 93.75 405.24 93.75C404.5 93.75 403.91 93.15 403.91 92.42C403.91 91.75 403.91 91.07 403.91 90.39C403.91 89.66 404.5 89.06 405.24 89.06C412.78 89.06 434.09 89.06 441.64 89.06Z" id="c4krfmwRIH"></path><path d="M694.33 70C711.27 70 725 83.73 725 100.67C725 126.54 725 173.46 725 199.33C725 216.27 711.27 230 694.33 230C660.46 230 589.54 230 555.67 230C538.73 230 525 216.27 525 199.33C525 173.46 525 126.54 525 100.67C525 83.73 538.73 70 555.67 70C589.54 70 660.46 70 694.33 70Z" id="a4p9dq5zC"></path><path d="M587.83 81.63C600.13 81.63 610.11 91.61 610.11 103.91C610.11 127.1 610.11 174.37 610.11 197.55C610.11 209.86 600.13 219.83 587.83 219.83C577.76 219.83 569.84 219.83 559.78 219.83C547.47 219.83 537.5 209.86 537.5 197.55C537.5 174.37 537.5 127.1 537.5 103.91C537.5 91.61 547.47 81.63 559.78 81.63C569.84 81.63 577.76 81.63 587.83 81.63Z" id="aeImJHDKd"></path><path d="M706.49 153.24L706.61 153.25L706.72 153.28L706.84 153.3L706.95 153.33L707.06 153.37L707.16 153.41L707.27 153.46L707.37 153.51L707.47 153.57L707.56 153.63L707.65 153.69L707.74 153.76L707.83 153.84L707.91 153.91L707.98 154L708.06 154.08L708.13 154.17L708.19 154.26L708.25 154.36L708.31 154.45L708.36 154.56L708.41 154.66L708.45 154.77L708.49 154.87L708.52 154.99L708.55 155.1L708.57 155.21L708.58 155.33L708.59 155.45L708.59 155.57L708.59 155.69L708.58 155.81L708.57 155.93L708.55 156.04L708.52 156.16L708.49 156.27L708.45 156.38L708.41 156.48L708.36 156.59L708.31 156.69L708.25 156.79L708.19 156.88L708.13 156.97L708.06 157.06L707.98 157.15L707.91 157.23L707.83 157.31L707.74 157.38L707.65 157.45L707.56 157.51L707.47 157.58L707.37 157.63L707.27 157.68L707.16 157.73L707.06 157.77L706.95 157.81L706.84 157.84L706.72 157.87L706.61 157.89L706.49 157.9L706.37 157.91L706.25 157.91L631.25 157.91L631.13 157.91L631.01 157.9L630.89 157.89L630.78 157.87L630.66 157.84L630.55 157.81L630.44 157.77L630.34 157.73L630.23 157.68L630.13 157.63L630.03 157.58L629.94 157.51L629.85 157.45L629.76 157.38L629.67 157.31L629.59 157.23L629.52 157.15L629.44 157.06L629.37 156.97L629.31 156.88L629.25 156.79L629.19 156.69L629.14 156.59L629.09 156.48L629.05 156.38L629.01 156.27L628.98 156.16L628.95 156.04L628.93 155.93L628.92 155.81L628.91 155.69L628.91 155.57L628.91 155.45L628.92 155.33L628.93 155.21L628.95 155.1L628.98 154.99L629.01 154.87L629.05 154.77L629.09 154.66L629.14 154.56L629.19 154.45L629.25 154.36L629.31 154.26L629.37 154.17L629.44 154.08L629.52 154L629.59 153.91L629.67 153.84L629.76 153.76L629.85 153.69L629.94 153.63L630.03 153.57L630.13 153.51L630.23 153.46L630.34 153.41L630.44 153.37L630.55 153.33L630.66 153.3L630.78 153.28L630.89 153.25L631.01 153.24L631.13 153.23L631.25 153.23L706.25 153.23L706.37 153.23L706.49 153.24ZM706.49 141.73L706.61 141.75L706.72 141.77L706.84 141.79L706.95 141.83L707.06 141.86L707.16 141.9L707.27 141.95L707.37 142L707.47 142.06L707.56 142.12L707.65 142.19L707.74 142.26L707.83 142.33L707.91 142.41L707.98 142.49L708.06 142.57L708.13 142.66L708.19 142.75L708.25 142.85L708.31 142.95L708.36 143.05L708.41 143.15L708.45 143.26L708.49 143.37L708.52 143.48L708.55 143.59L708.57 143.71L708.58 143.82L708.59 143.94L708.59 144.06L708.59 144.18L708.58 144.3L708.57 144.42L708.55 144.54L708.52 144.65L708.49 144.76L708.45 144.87L708.41 144.98L708.36 145.08L708.31 145.18L708.25 145.28L708.19 145.37L708.13 145.47L708.06 145.56L707.98 145.64L707.91 145.72L707.83 145.8L707.74 145.87L707.65 145.94L707.56 146.01L707.47 146.07L707.37 146.13L707.27 146.18L707.16 146.22L707.06 146.27L706.95 146.3L706.84 146.33L706.72 146.36L706.61 146.38L706.49 146.4L706.37 146.4L706.25 146.41L631.25 146.41L631.13 146.4L631.01 146.4L630.89 146.38L630.78 146.36L630.66 146.33L630.55 146.3L630.44 146.27L630.34 146.22L630.23 146.18L630.13 146.13L630.03 146.07L629.94 146.01L629.85 145.94L629.76 145.87L629.67 145.8L629.59 145.72L629.52 145.64L629.44 145.56L629.37 145.47L629.31 145.37L629.25 145.28L629.19 145.18L629.14 145.08L629.09 144.98L629.05 144.87L629.01 144.76L628.98 144.65L628.95 144.54L628.93 144.42L628.92 144.3L628.91 144.18L628.91 144.06L628.91 143.94L628.92 143.82L628.93 143.71L628.95 143.59L628.98 143.48L629.01 143.37L629.05 143.26L629.09 143.15L629.14 143.05L629.19 142.95L629.25 142.85L629.31 142.75L629.37 142.66L629.44 142.57L629.52 142.49L629.59 142.41L629.67 142.33L629.76 142.26L629.85 142.19L629.94 142.12L630.03 142.06L630.13 142L630.23 141.95L630.34 141.9L630.44 141.86L630.55 141.83L630.66 141.79L630.78 141.77L630.89 141.75L631.01 141.73L631.13 141.72L631.25 141.72L706.25 141.72L706.37 141.72L706.49 141.73ZM706.49 130.01L706.61 130.03L706.72 130.05L706.84 130.08L706.95 130.11L707.06 130.14L707.16 130.19L707.27 130.23L707.37 130.28L707.47 130.34L707.56 130.4L707.65 130.47L707.74 130.54L707.83 130.61L707.91 130.69L707.98 130.77L708.06 130.85L708.13 130.94L708.19 131.04L708.25 131.13L708.31 131.23L708.36 131.33L708.41 131.43L708.45 131.54L708.49 131.65L708.52 131.76L708.55 131.87L708.57 131.99L708.58 132.11L708.59 132.22L708.59 132.35L708.59 132.47L708.58 132.59L708.57 132.7L708.55 132.82L708.52 132.93L708.49 133.04L708.45 133.15L708.41 133.26L708.36 133.36L708.31 133.46L708.25 133.56L708.19 133.66L708.13 133.75L708.06 133.84L707.98 133.92L707.91 134L707.83 134.08L707.74 134.15L707.65 134.22L707.56 134.29L707.47 134.35L707.37 134.41L707.27 134.46L707.16 134.51L707.06 134.55L706.95 134.58L706.84 134.62L706.72 134.64L706.61 134.66L706.49 134.68L706.37 134.69L706.25 134.69L631.25 134.69L631.13 134.69L631.01 134.68L630.89 134.66L630.78 134.64L630.66 134.62L630.55 134.58L630.44 134.55L630.34 134.51L630.23 134.46L630.13 134.41L630.03 134.35L629.94 134.29L629.85 134.22L629.76 134.15L629.67 134.08L629.59 134L629.52 133.92L629.44 133.84L629.37 133.75L629.31 133.66L629.25 133.56L629.19 133.46L629.14 133.36L629.09 133.26L629.05 133.15L629.01 133.04L628.98 132.93L628.95 132.82L628.93 132.7L628.92 132.59L628.91 132.47L628.91 132.35L628.91 132.22L628.92 132.11L628.93 131.99L628.95 131.87L628.98 131.76L629.01 131.65L629.05 131.54L629.09 131.43L629.14 131.33L629.19 131.23L629.25 131.13L629.31 131.04L629.37 130.94L629.44 130.85L629.52 130.77L629.59 130.69L629.67 130.61L629.76 130.54L629.85 130.47L629.94 130.4L630.03 130.34L630.13 130.28L630.23 130.23L630.34 130.19L630.44 130.14L630.55 130.11L630.66 130.08L630.78 130.05L630.89 130.03L631.01 130.01L631.13 130L631.25 130L706.25 130L706.37 130L706.49 130.01ZM706.49 118.3L706.61 118.31L706.72 118.33L706.84 118.36L706.95 118.39L707.06 118.43L707.16 118.47L707.27 118.51L707.37 118.57L707.47 118.62L707.56 118.68L707.65 118.75L707.74 118.82L707.83 118.89L707.91 118.97L707.98 119.05L708.06 119.14L708.13 119.22L708.19 119.32L708.25 119.41L708.31 119.51L708.36 119.61L708.41 119.71L708.45 119.82L708.49 119.93L708.52 120.04L708.55 120.15L708.57 120.27L708.58 120.39L708.59 120.51L708.59 120.63L708.59 120.75L708.58 120.87L708.57 120.98L708.55 121.1L708.52 121.21L708.49 121.32L708.45 121.43L708.41 121.54L708.36 121.64L708.31 121.74L708.25 121.84L708.19 121.94L708.13 122.03L708.06 122.12L707.98 122.2L707.91 122.28L707.83 122.36L707.74 122.44L707.65 122.5L707.56 122.57L707.47 122.63L707.37 122.69L707.27 122.74L707.16 122.79L707.06 122.83L706.95 122.87L706.84 122.9L706.72 122.92L706.61 122.94L706.49 122.96L706.37 122.97L706.25 122.97L631.25 122.97L631.13 122.97L631.01 122.96L630.89 122.94L630.78 122.92L630.66 122.9L630.55 122.87L630.44 122.83L630.34 122.79L630.23 122.74L630.13 122.69L630.03 122.63L629.94 122.57L629.85 122.5L629.76 122.44L629.67 122.36L629.59 122.28L629.52 122.2L629.44 122.12L629.37 122.03L629.31 121.94L629.25 121.84L629.19 121.74L629.14 121.64L629.09 121.54L629.05 121.43L629.01 121.32L628.98 121.21L628.95 121.1L628.93 120.98L628.92 120.87L628.91 120.75L628.91 120.63L628.91 120.51L628.92 120.39L628.93 120.27L628.95 120.15L628.98 120.04L629.01 119.93L629.05 119.82L629.09 119.71L629.14 119.61L629.19 119.51L629.25 119.41L629.31 119.32L629.37 119.22L629.44 119.14L629.52 119.05L629.59 118.97L629.67 118.89L629.76 118.82L629.85 118.75L629.94 118.68L630.03 118.62L630.13 118.57L630.23 118.51L630.34 118.47L630.44 118.43L630.55 118.39L630.66 118.36L630.78 118.33L630.89 118.31L631.01 118.3L631.13 118.29L631.25 118.28L706.25 118.28L706.37 118.29L706.49 118.3ZM706.49 106.58L706.61 106.59L706.72 106.61L706.84 106.64L706.95 106.67L707.06 106.71L707.16 106.75L707.27 106.8L707.37 106.85L707.47 106.9L707.56 106.96L707.65 107.03L707.74 107.1L707.83 107.17L707.91 107.25L707.98 107.33L708.06 107.42L708.13 107.51L708.19 107.6L708.25 107.69L708.31 107.79L708.36 107.89L708.41 108L708.45 108.1L708.49 108.21L708.52 108.32L708.55 108.44L708.57 108.55L708.58 108.67L708.59 108.79L708.59 108.91L708.59 109.03L708.58 109.15L708.57 109.26L708.55 109.38L708.52 109.49L708.49 109.6L708.45 109.71L708.41 109.82L708.36 109.92L708.31 110.03L708.25 110.12L708.19 110.22L708.13 110.31L708.06 110.4L707.98 110.48L707.91 110.57L707.83 110.64L707.74 110.72L707.65 110.79L707.56 110.85L707.47 110.91L707.37 110.97L707.27 111.02L707.16 111.07L707.06 111.11L706.95 111.15L706.84 111.18L706.72 111.2L706.61 111.22L706.49 111.24L706.37 111.25L706.25 111.25L631.25 111.25L631.13 111.25L631.01 111.24L630.89 111.22L630.78 111.2L630.66 111.18L630.55 111.15L630.44 111.11L630.34 111.07L630.23 111.02L630.13 110.97L630.03 110.91L629.94 110.85L629.85 110.79L629.76 110.72L629.67 110.64L629.59 110.57L629.52 110.48L629.44 110.4L629.37 110.31L629.31 110.22L629.25 110.12L629.19 110.03L629.14 109.92L629.09 109.82L629.05 109.71L629.01 109.6L628.98 109.49L628.95 109.38L628.93 109.26L628.92 109.15L628.91 109.03L628.91 108.91L628.91 108.79L628.92 108.67L628.93 108.55L628.95 108.44L628.98 108.32L629.01 108.21L629.05 108.1L629.09 108L629.14 107.89L629.19 107.79L629.25 107.69L629.31 107.6L629.37 107.51L629.44 107.42L629.52 107.33L629.59 107.25L629.67 107.17L629.76 107.1L629.85 107.03L629.94 106.96L630.03 106.9L630.13 106.85L630.23 106.8L630.34 106.75L630.44 106.71L630.55 106.67L630.66 106.64L630.78 106.61L630.89 106.59L631.01 106.58L631.13 106.57L631.25 106.56L706.25 106.56L706.37 106.57L706.49 106.58Z" id="c5bwfHHiLr"></path><path d="M666.64 88.75C667.37 88.75 667.97 89.35 667.97 90.08C667.97 90.75 667.97 91.43 667.97 92.11C667.97 92.84 667.37 93.44 666.64 93.44C659.09 93.44 637.78 93.44 630.24 93.44C629.5 93.44 628.91 92.84 628.91 92.11C628.91 91.43 628.91 90.75 628.91 90.08C628.91 89.35 629.5 88.75 630.24 88.75C637.78 88.75 659.09 88.75 666.64 88.75Z" id="gkwVoYhax"></path></defs><g><g><g><g><g><use xlink:href="#a2qQfbbPxu" opacity="1" fill-opacity="0" stroke="#d67500" stroke-width="7" stroke-opacity="1"></use></g></g><g><use xlink:href="#eF6NoRcIn" opacity="1" fill="#d67500" fill-opacity="1"></use></g><g><use xlink:href="#d2Jai9VZQc" opacity="1" fill="#d67500" fill-opacity="1"></use><g><use xlink:href="#d2Jai9VZQc" opacity="1" fill-opacity="0" stroke="#d67500" stroke-width="7" stroke-opacity="0"></use></g></g><g><use xlink:href="#c5czNfwlQn" opacity="1" fill="#d67500" fill-opacity="1"></use><g><use xlink:href="#c5czNfwlQn" opacity="1" fill-opacity="0" stroke="#d67500" stroke-width="7" stroke-opacity="0"></use></g></g></g><g><g><g><use xlink:href="#af48mygey" opacity="1" fill-opacity="0" stroke="#d67500" stroke-width="7" stroke-opacity="1"></use></g></g><g><use xlink:href="#b3vWQDJpku" opacity="1" fill="#d67500" fill-opacity="1"></use></g><g><use xlink:href="#b1fXw1a8eD" opacity="1" fill="#d67500" fill-opacity="1"></use><g><use xlink:href="#b1fXw1a8eD" opacity="1" fill-opacity="0" stroke="#d67500" stroke-width="7" stroke-opacity="0"></use></g></g><g><use xlink:href="#c4krfmwRIH" opacity="1" fill="#d67500" fill-opacity="1"></use><g><use xlink:href="#c4krfmwRIH" opacity="1" fill-opacity="0" stroke="#d67500" stroke-width="7" stroke-opacity="0"></use></g></g></g><g><g><g><use xlink:href="#a4p9dq5zC" opacity="1" fill-opacity="0" stroke="#d67500" stroke-width="7" stroke-opacity="1"></use></g></g><g><use xlink:href="#aeImJHDKd" opacity="1" fill="#d67500" fill-opacity="1"></use></g><g><use xlink:href="#c5bwfHHiLr" opacity="1" fill="#d67500" fill-opacity="1"></use><g><use xlink:href="#c5bwfHHiLr" opacity="1" fill-opacity="0" stroke="#d67500" stroke-width="7" stroke-opacity="0"></use></g></g><g><use xlink:href="#gkwVoYhax" opacity="1" fill="#d67500" fill-opacity="1"></use><g><use xlink:href="#gkwVoYhax" opacity="1" fill-opacity="0" stroke="#d67500" stroke-width="7" stroke-opacity="0"></use></g></g></g></g></g></svg>