<?xml version="1.0" encoding="UTF-8" standalone="no"?>
<!DOCTYPE svg PUBLIC "-//W3C//DTD SVG 1.1//EN" "http://www.w3.org/Graphics/SVG/1.1/DTD/svg11.dtd">
<svg version="1.1" xmlns="http://www.w3.org/2000/svg" xmlns:xlink="http://www.w3.org/1999/xlink" preserveAspectRatio="xMidYMid meet" viewBox="35.51351719603933 0.5135171960393214 270.9729656079215 270.9729656079215" width="800" height="800"><defs><path d="M177.93 268.49L36.51 127.07L38.32 125.26L179.74 266.68L177.93 268.49ZM181.47 264.95L40.05 123.53L41.86 121.72L183.28 263.14L181.47 264.95ZM185.01 261.42L43.58 119.99L45.39 118.19L186.81 259.61L185.01 261.42ZM188.54 257.88L47.12 116.46L48.93 114.65L190.35 256.07L188.54 257.88ZM192.08 254.34L50.66 112.92L52.46 111.12L193.88 252.54L192.08 254.34ZM195.61 250.81L54.19 109.39L56 107.58L197.42 249L195.61 250.81ZM199.15 247.27L57.73 105.85L59.53 104.04L200.96 245.47L199.15 247.27ZM202.68 243.74L61.26 102.32L63.07 100.51L204.49 241.93L202.68 243.74ZM206.22 240.2L64.8 98.78L66.61 96.97L208.03 238.39L206.22 240.2ZM209.75 236.67L68.33 95.25L70.14 93.44L211.56 234.86L209.75 236.67ZM213.29 233.13L71.87 91.71L73.68 89.9L215.1 231.32L213.29 233.13ZM216.83 229.6L75.4 88.17L77.21 86.37L218.63 227.79L216.83 229.6ZM220.36 226.06L78.94 84.64L80.75 82.83L222.17 224.25L220.36 226.06ZM223.9 222.52L82.48 81.1L84.28 79.3L225.7 220.72L223.9 222.52ZM227.43 218.99L86.01 77.57L87.82 75.76L229.24 217.18L227.43 218.99ZM230.97 215.45L89.55 74.03L91.35 72.22L232.78 213.65L230.97 215.45ZM234.5 211.92L93.08 70.5L94.89 68.69L236.31 210.11L234.5 211.92ZM238.04 208.38L96.62 66.96L98.43 65.15L239.85 206.57L238.04 208.38ZM241.57 204.85L100.15 63.43L101.96 61.62L243.38 203.04L241.57 204.85ZM245.11 201.31L103.69 59.89L105.5 58.08L246.92 199.5L245.11 201.31ZM248.65 197.78L107.22 56.35L109.03 54.55L250.45 195.97L248.65 197.78ZM252.18 194.24L110.76 52.82L112.57 51.01L253.99 192.43L252.18 194.24ZM255.72 190.7L114.3 49.28L116.1 47.48L257.52 188.9L255.72 190.7ZM259.25 187.17L117.83 45.75L119.64 43.94L261.06 185.36L259.25 187.17ZM262.79 183.63L121.37 42.21L123.17 40.4L264.6 181.83L262.79 183.63ZM266.32 180.1L124.9 38.68L126.71 36.87L268.13 178.29L266.32 180.1ZM269.86 176.56L128.44 35.14L130.25 33.33L271.67 174.75L269.86 176.56ZM273.39 173.03L131.97 31.61L133.78 29.8L275.2 171.22L273.39 173.03ZM276.93 169.49L135.51 28.07L137.32 26.26L278.74 167.68L276.93 169.49ZM280.47 165.96L139.04 24.53L140.85 22.73L282.27 164.15L280.47 165.96ZM284 162.42L142.58 21L144.39 19.19L285.81 160.61L284 162.42ZM287.54 158.88L146.12 17.46L147.92 15.66L289.34 157.08L287.54 158.88ZM291.07 155.35L149.65 13.93L151.46 12.12L292.88 153.54L291.07 155.35ZM294.61 151.81L153.19 10.39L154.99 8.58L296.42 150.01L294.61 151.81ZM298.14 148.28L156.72 6.86L158.53 5.05L299.95 146.47L298.14 148.28ZM301.68 144.74L160.26 3.32L162.07 1.51L303.49 142.93L301.68 144.74Z" id="bh24VggbB"></path></defs><g><g><g></g><use xlink:href="#bh24VggbB" opacity="1" fill="#d67500" fill-opacity="1"></use><g><use xlink:href="#bh24VggbB" opacity="1" fill-opacity="0" stroke="#84bd2f" stroke-width="1" stroke-opacity="0"></use></g><g></g></g></g></svg>