<?xml version="1.0" encoding="UTF-8" standalone="no"?>
<!DOCTYPE svg PUBLIC "-//W3C//DTD SVG 1.1//EN" "http://www.w3.org/Graphics/SVG/1.1/DTD/svg11.dtd">
<svg version="1.1" xmlns="http://www.w3.org/2000/svg" xmlns:xlink="http://www.w3.org/1999/xlink" preserveAspectRatio="xMidYMid meet" viewBox="7.7890625 3.1015625 26.8515625 28.0234375" width="200" height="210.26"><defs><path d="M16.14 4.77L17.12 5.53L17.89 6.52L18.38 7.69L18.55 8.98L18.38 10.28L17.89 11.45L17.12 12.44L16.14 13.2L15.02 13.67L15.03 13.67L15.79 13.76L16.49 14.01L17.11 14.4L17.63 14.92L18.02 15.54L18.27 16.24L18.36 17L18.36 25L8.98 25L8.98 16.98L9.07 16.22L9.32 15.53L9.71 14.91L10.22 14.4L10.84 14.01L11.54 13.76L12.29 13.67L12.33 13.67L11.21 13.2L10.22 12.44L9.46 11.45L8.96 10.28L8.79 8.98L8.96 7.69L9.46 6.52L10.22 5.53L11.21 4.77L12.37 4.28L13.67 4.1L14.97 4.28L16.14 4.77Z" id="az9BvyWZT"></path><path d="M29.22 4.77L30.21 5.53L30.97 6.52L31.47 7.69L31.64 8.98L31.47 10.28L30.97 11.45L30.21 12.44L29.22 13.2L28.1 13.67L28.12 13.67L28.88 13.76L29.58 14.01L30.2 14.4L30.71 14.92L31.11 15.54L31.36 16.24L31.45 17L31.45 25L22.07 25L22.07 16.98L22.16 16.22L22.41 15.53L22.8 14.91L23.31 14.4L23.92 14.01L24.62 13.76L25.38 13.67L25.41 13.67L24.29 13.2L23.31 12.44L22.54 11.45L22.05 10.28L21.88 8.98L22.05 7.69L22.54 6.52L23.31 5.53L24.29 4.77L25.46 4.28L26.76 4.1L28.06 4.28L29.22 4.77Z" id="a1kD5fqLCM"></path><path d="M22.78 7.89L23.76 8.66L24.53 9.65L25.02 10.81L25.2 12.11L25.02 13.41L24.53 14.57L23.76 15.56L22.78 16.33L21.66 16.8L21.67 16.8L22.43 16.88L23.13 17.14L23.75 17.53L24.27 18.04L24.66 18.66L24.91 19.36L25 20.13L25 28.13L15.63 28.13L15.63 20.11L15.71 19.35L15.96 18.65L16.35 18.04L16.86 17.52L17.48 17.13L18.18 16.88L18.93 16.8L18.97 16.8L17.85 16.33L16.86 15.56L16.1 14.57L15.6 13.41L15.43 12.11L15.6 10.81L16.1 9.65L16.86 8.66L17.85 7.89L19.02 7.4L20.31 7.23L21.61 7.4L22.78 7.89Z" id="davsRPzmV"></path></defs><g><g><use xlink:href="#az9BvyWZT" opacity="1" fill="#9c5600" fill-opacity="1"></use></g><g><use xlink:href="#a1kD5fqLCM" opacity="1" fill="#9c5600" fill-opacity="1"></use></g><g><use xlink:href="#davsRPzmV" opacity="1" fill="#d67500" fill-opacity="1"></use></g></g></svg>