<svg xmlns="http://www.w3.org/2000/svg" xmlns:xlink="http://www.w3.org/1999/xlink" viewBox="0 0 92 186"><defs><style>.a{fill:none;}.b{fill:#5b5b5b;stroke:rgba(145,145,145,0.6);}.c,.e{fill:#fff;}.c{stroke:#707070;}.d{fill:rgba(145,145,145,0.6);}.f{fill:#333;}.g{fill:#eee;font-size:5px;font-family:Poppins-Bold, Poppins;font-weight:700;}.h{fill:#d67500;}.i{clip-path:url(#a);}.j{fill:#ccc;}.k{stroke:none;}</style><clipPath id="a"><rect class="a" width="82" height="122"/></clipPath></defs><g transform="translate(-28 -29)"><g class="b" transform="translate(28 29)"><rect class="k" width="92" height="186" rx="8"/><rect class="a" x="0.5" y="0.5" width="91" height="185" rx="7.5"/></g><g class="c" transform="translate(67 197)"><circle class="k" cx="7" cy="7" r="7"/><circle class="a" cx="7" cy="7" r="6.5"/></g><rect class="d" width="30" height="2" rx="1" transform="translate(59 36)"/><rect class="e" width="90" height="150" transform="translate(29 44)"/><rect class="f" width="90" height="12" transform="translate(29 44)"/><text class="g" transform="translate(33 52)"><tspan x="0" y="0">TIPNET</tspan></text><circle class="h" cx="7" cy="7" r="7" transform="translate(99 49)"/><g class="i" transform="translate(33 72)"><g transform="translate(-33 -72)"><rect class="j" width="82" height="17" transform="translate(33 72)"/></g><g transform="translate(-33 -50)"><rect class="j" width="82" height="17" transform="translate(33 72)"/></g><g transform="translate(-33 -28)"><rect class="j" width="82" height="17" transform="translate(33 72)"/></g><g transform="translate(-33 -6)"><rect class="j" width="82" height="17" transform="translate(33 72)"/></g><g transform="translate(-33 16)"><rect class="j" width="82" height="17" transform="translate(33 72)"/></g><g transform="translate(-33 38)"><rect class="j" width="82" height="17" transform="translate(33 72)"/></g></g></g></svg>